PathFileType	4	(X/Y/Z)	C:\Users\Basilio\Documents\Thesis Gigler\squatting_fais\c3dfiles\044\SJ_pre3\markers_experimental.trc
DataRate	CameraRate	NumFrames	NumMarkers	Units	OrigDataRate	OrigDataStartFrame	OrigNumFrames
200.000000	200.000000	4	63	mm	200.000000	891	1427
Frame#	Time	FHD			LBHD			RBHD			C7			T10			CLAV			LSHO			LUUPA			LMUPA			LDUPA			LLEP			LMEP			LRAD			LUL			LRFIN			RSHO			RUPA1			RMUPA			RDUPA			RLEP			RMEP			RRAD			RUL			RUFIN			RASI			USACR			LSACR			RSACR			LTHI1			LTHI2			LTHI3			LTHI4			LLFC			LMFC			LTIB1			LTIB2			LTIB3			LTIB4			LLMAL			LMMAL			LHEE			LMT1			LMT2			LMT5			RTHI			RTHI2			RTHI3			RTHI4			RLFC			RMFC			RTIB1			RTIB2			RTIB3			RTIB4			RLMAL			RMMAL			RHEE			RMT1			RMT2			RMT5			LASI			*61			*62			
		X1	Y1	Z1	X2	Y2	Z2	X3	Y3	Z3	X4	Y4	Z4	X5	Y5	Z5	X6	Y6	Z6	X7	Y7	Z7	X8	Y8	Z8	X9	Y9	Z9	X10	Y10	Z10	X11	Y11	Z11	X12	Y12	Z12	X13	Y13	Z13	X14	Y14	Z14	X15	Y15	Z15	X16	Y16	Z16	X17	Y17	Z17	X18	Y18	Z18	X19	Y19	Z19	X20	Y20	Z20	X21	Y21	Z21	X22	Y22	Z22	X23	Y23	Z23	X24	Y24	Z24	X25	Y25	Z25	X26	Y26	Z26	X27	Y27	Z27	X28	Y28	Z28	X29	Y29	Z29	X30	Y30	Z30	X31	Y31	Z31	X32	Y32	Z32	X33	Y33	Z33	X34	Y34	Z34	X35	Y35	Z35	X36	Y36	Z36	X37	Y37	Z37	X38	Y38	Z38	X39	Y39	Z39	X40	Y40	Z40	X41	Y41	Z41	X42	Y42	Z42	X43	Y43	Z43	X44	Y44	Z44	X45	Y45	Z45	X46	Y46	Z46	X47	Y47	Z47	X48	Y48	Z48	X49	Y49	Z49	X50	Y50	Z50	X51	Y51	Z51	X52	Y52	Z52	X53	Y53	Z53	X54	Y54	Z54	X55	Y55	Z55	X56	Y56	Z56	X57	Y57	Z57	X58	Y58	Z58	X59	Y59	Z59	X60	Y60	Z60	X61	Y61	Z61	X62	Y62	Z62	X63	Y63	Z63	

892	4.455	-4.385155677795411	1467.362426757813	-946.3789062500002	-110.1553955078125	1372.079223632813	-1016.095520019531	-130.950424194336	1339.489135742188	-854.3826904296877	-154.0894927978516	1250.236694335938	-938.099304199219	-333.1662902832032	1015.474731445313	-911.5335083007815	-39.77893829345704	1156.8505859375	-935.1300048828127	-54.95485687255861	1186.064575195313	-1111.858764648438	-205.2765197753907	1068.877807617188	-1260.610717773438	-205.9681701660157	1021.993347167969	-1244.697265625	-250.5619201660157	1022.965881347656	-1286.325073242188	-289.0793457031251	976.3021240234377	-1292.930419921875	-347.8237609863282	1024.568603515625	-1255.784423828125	-425.019744873047	797.3038330078127	-1124.796142578125	-395.0193176269532	753.3037109375001	-1169.09912109375	-371.6576843261719	790.7916259765627	-1088.14404296875	-55.36189651489259	1190.565063476563	-749.1748046875001	-173.3927917480469	1073.899291992188	-586.5162963867189	-172.1399688720703	1024.8017578125	-599.3956298828126	-209.0449676513672	1023.53515625	-551.7980346679689	-241.4031524658204	969.8624267578127	-538.6048583984376	-313.2462158203126	1011.445434570313	-563.4355468750001	-405.8361816406251	776.7558593750002	-664.2631835937501	-359.5219421386719	738.2979736328126	-622.3974609375001	-350.0174255371094	776.5357666015627	-708.2968139648439	-313.0724182128907	767.2169189453126	-798.5598754882815	-429.7069091796876	891.5244140625002	-894.990905761719	-458.3724975585939	870.0960083007815	-918.6755981445315	-449.4524230957032	869.848815917969	-864.1846923828127	-347.3406982421876	631.6937866210939	-1117	-267.2992553710938	604.0488891601564	-1134.968505859375	-234.1683959960938	635.7685546875001	-1124.879150390625	-248.2607879638672	546.1346435546876	-1134.441650390625	-139.0418395996094	444.2520751953126	-1140.381713867188	-128.7613372802735	432.014617919922	-1027.49853515625	-176.7881317138672	275.7648620605469	-1067.172485351563	-226.8906250000001	248.0073242187501	-1135.574951171875	-198.9740142822266	231.9830322265626	-1099.960693359375	-252.3723297119141	173.5907897949219	-1067.89892578125	-357.7619323730469	95.75009155273439	-1114.958251953125	-333.1361083984376	101.750717163086	-1028.056640625	-425.2038879394532	53.15181732177736	-1064.5830078125	-206.6698150634766	59.67531204223634	-1058.540893554688	-212.786605834961	61.01662063598634	-1105.010131835938	-250.2549896240235	38.42660903930665	-1148.974609375	-289.7649230957032	583.6478271484376	-701.8519287109376	-221.085922241211	579.2525634765626	-694.8874511718751	-199.9708862304688	603.1010742187501	-700.8612670898439	-179.4747161865235	505.477508544922	-706.3899536132814	-122.6734390258789	429.9600219726564	-714.5037841796876	-122.3783950805664	424.5927734375001	-832.7777099609377	-130.1607055664063	298.1673889160157	-749.6379394531251	-229.1345520019532	275.1878356933594	-704.6372680664064	-198.2024536132813	248.6148223876954	-720.8593139648439	-218.0654907226563	201.5629425048829	-750.2899169921876	-364.9288635253907	107.5830154418946	-733.1066284179689	-338.3040161132813	111.6556701660157	-820.0095214843752	-427.9377746582032	69.20974731445314	-785.8199462890627	-214.1104583740235	60.38223266601564	-785.3587646484377	-212.5193481445313	57.00122833251955	-747.3906860351564	-254.8941802978516	40.31041336059571	-698.2540893554689	-322.9147644042969	772.1655273437502	-1016.532897949219	nan	nan	nan	nan	nan	nan	
893	4.46	-10.96881675720215	1481.404541015625	-946.034606933594	-115.7777099609375	1385.337890625	-1015.836669921875	-136.5117492675782	1352.484252929688	-852.309753417969	-158.2315979003907	1262.988525390625	-938.0971679687502	-333.6233215332032	1024.424438476563	-912.011657714844	-42.66415405273438	1170.797485351563	-934.6524047851565	-56.11433029174806	1200.531005859375	-1111.392578125	-204.1732635498047	1078.868286132813	-1258.977172851563	-204.6416168212891	1031.679809570313	-1242.03857421875	-248.4831085205079	1031.639404296875	-1284.255981445313	-285.5090637207032	984.169372558594	-1290.634399414063	-345.2394714355469	1030.988525390625	-1254.515014648438	-422.9839172363282	803.502136230469	-1124.727661132813	-392.5218811035157	760.5537719726564	-1169.294677734375	-369.7752685546876	796.8688964843752	-1088.390014648438	-58.35743331909181	1205.052368164063	-748.4638671875001	-174.6515045166016	1084.507934570313	-587.2446899414064	-172.7173309326172	1034.984497070313	-600.1578979492189	-209.454086303711	1032.620239257813	-552.8091430664064	-240.9838562011719	978.6019287109377	-539.9734497070314	-313.3759765625001	1019.126953125	-564.2135620117189	-403.6094055175782	783.5046386718752	-664.7409667968751	-357.0828247070313	745.6658935546876	-622.5251464843751	-347.5791015625001	783.524108886719	-708.5418701171876	-310.3782653808594	775.2684326171877	-798.6898193359377	-428.5644531250001	899.2551879882815	-895.6873779296877	-456.572723388672	877.1458129882815	-919.135681152344	-447.5015563964845	877.3417968750002	-864.6171875000002	-345.7381591796876	636.7153320312501	-1116.8466796875	-266.2879028320313	607.4193725585939	-1134.8671875	-232.9383392333985	639.2409057617189	-1124.977783203125	-248.0119781494141	549.7207031250001	-1133.788696289063	-140.0912170410157	445.6072387695314	-1140.041625976563	-130.2400817871094	433.1958923339845	-1026.74755859375	-177.6791534423828	277.2632141113282	-1066.791137695313	-227.4759826660157	249.1800079345704	-1135.56689453125	-198.9323425292969	233.620834350586	-1099.905395507813	-252.3312988281251	174.3721008300782	-1068.161010742188	-357.5719909667969	96.13343811035159	-1114.96826171875	-333.0402832031251	102.2132110595703	-1028.256713867188	-425.250701904297	53.5598602294922	-1064.581909179688	-206.5175018310547	59.59893798828126	-1058.668579101563	-212.6839141845704	60.86977386474611	-1105.07568359375	-250.2510528564454	38.43208694458009	-1149.2119140625	-288.4597473144532	589.0825195312501	-702.1293334960939	-219.9602203369141	584.0339965820314	-695.5695190429689	-198.3663482666016	606.8773193359376	-700.8381347656251	-179.1706237792969	509.2301330566407	-706.9905395507814	-123.6056671142578	432.4476013183595	-714.8477172851564	-123.3753051757813	426.6986694335939	-833.0108642578127	-130.8102416992188	300.3923339843751	-749.5188598632814	-229.5626525878907	276.5845031738282	-704.9315795898439	-198.4524078369141	250.3372955322266	-720.9312133789064	-217.8308105468751	203.1184387207032	-750.3575439453126	-364.7079772949219	108.7661209106446	-733.0518798828126	-337.5296325683594	112.5314559936524	-819.8435058593752	-427.6730957031251	70.76358795166017	-785.5458984375002	-215.5129699707032	60.36919021606447	-785.2829589843752	-212.3298645019532	56.87509155273439	-747.3487548828126	-254.6298065185547	40.73373031616212	-698.6236572265626	-320.8674011230469	779.678405761719	-1016.804382324219	nan	nan	nan	nan	nan	nan	
894	4.465	-17.02449798583985	1495.385864257813	-945.9329833984377	-121.2112350463867	1398.520629882813	-1015.784729003906	-142.5536651611328	1366.409912109375	-853.6092529296877	-162.171630859375	1275.688842773438	-937.976745605469	-334.3663940429688	1033.492065429688	-912.4128417968752	-45.8325309753418	1185.232666015625	-933.8192138671877	-57.99121475219728	1215.085327148438	-1110.507934570313	-203.4691009521485	1089.090209960938	-1256.939819335938	-202.5145568847657	1042.153198242188	-1239.9130859375	-246.1833496093751	1040.634887695313	-1282.071533203125	-282.5005798339844	992.074401855469	-1288.328247070313	-343.0765686035157	1038.380249023438	-1252.676513671875	-421.0690002441407	810.5504150390627	-1124.692138671875	-390.5981750488282	767.7019653320314	-1169.302978515625	-367.9844055175782	803.3627929687502	-1088.7353515625	-61.56799697875978	1219.629150390625	-747.8346557617189	-176.2432708740235	1094.97607421875	-587.7980957031251	-172.9675598144532	1045.701171875	-601.0447387695314	-209.7803344726563	1042.462890625	-553.7509765625001	-240.3118286132813	987.511901855469	-541.3308105468751	-313.4010925292969	1027.324340820313	-565.3692626953126	-400.9787597656251	790.5450439453127	-665.3592529296876	-354.4639282226563	753.0452880859376	-622.9151000976564	-344.5958862304688	790.2500610351565	-708.6712646484376	-307.6927490234376	783.201599121094	-799.4873657226565	-426.7273254394532	906.9488525390627	-896.225769042969	-454.8980102539064	884.5889282226565	-919.488708496094	-445.8369140625001	884.859069824219	-865.0264282226565	-344.1280517578126	641.7338867187501	-1116.676147460938	-265.0873718261719	611.2789306640626	-1134.973266601563	-230.5565032958985	642.3215332031251	-1125.392822265625	-247.8130035400391	553.1498413085939	-1133.257202148438	-141.290023803711	447.1961364746095	-1139.450561523438	-130.4007720947266	435.121307373047	-1026.029174804688	-178.3248291015625	278.5263977050782	-1066.961669921875	-227.2950897216797	250.9174346923829	-1135.360229492188	-200.0229797363282	234.2843627929688	-1099.93408203125	-252.5695037841797	175.25390625	-1068.2216796875	-357.3597412109376	96.56269073486331	-1115.05224609375	-332.9519042968751	102.8460464477539	-1028.483642578125	-424.6594848632814	53.75592422485353	-1064.358032226563	-206.3837127685547	60.09377670288087	-1059.272338867188	-212.5566711425782	60.75321578979494	-1105.200927734375	-250.3943634033204	37.99740982055665	-1149.087646484375	-287.0021972656251	594.5385742187501	-702.8023071289064	-218.7584381103516	588.0106811523439	-695.2977905273439	-196.8070220947266	611.0526733398439	-701.2459716796876	-179.2351684570313	512.9575805664064	-707.5029907226564	-124.8208694458008	434.9077148437501	-714.9724731445314	-124.2694931030274	428.9708862304689	-833.213562011719	-131.3767700195313	302.5494384765626	-749.4647216796876	-230.0926666259766	278.6531982421876	-705.1069335937501	-198.8581085205079	252.5176849365235	-720.8924560546876	-217.8102416992188	204.6651458740235	-749.9777832031251	-363.9193115234376	110.0843276977539	-733.2039794921876	-337.1013488769532	113.5454025268555	-819.7794189453127	-427.247039794922	72.56295013427736	-785.6662597656252	-214.9528808593751	60.38291549682619	-785.1389160156252	-211.9764709472657	56.80986785888673	-746.7336425781251	-254.3457946777344	40.98325347900391	-698.4528198242189	-318.7465515136719	788.4293212890627	-1016.684997558594	nan	nan	nan	nan	nan	nan	
895	4.47	-23.77449989318848	1509.835083007813	-945.6452636718752	-126.8298416137696	1411.705932617188	-1015.871276855469	-147.9986877441407	1379.943481445313	-854.0040283203127	-166.7811889648438	1289.05810546875	-938.1092529296877	-334.8345031738282	1042.648803710938	-912.8757324218752	-49.17199325561525	1199.761596679688	-933.2161254882815	-59.66370391845705	1230.320434570313	-1109.5673828125	-202.2916259765626	1099.553588867188	-1255.099487304688	-199.5207977294922	1053.082641601563	-1238.131591796875	-243.7987365722657	1050.11328125	-1279.940185546875	-278.9251708984376	1000.5986328125	-1285.8017578125	-340.6704101562501	1046.048217773438	-1251.169921875	-418.9102783203126	817.856140136719	-1124.402954101563	-388.4263610839845	774.4671630859377	-1169.31103515625	-365.7844543457032	810.2461547851565	-1089.000122070313	-64.76457977294923	1234.524291992188	-747.0834350585939	-177.2616577148438	1106.2451171875	-588.3731079101564	-173.3899688720703	1056.880249023438	-602.3519287109376	-209.9669494628907	1052.749389648438	-554.9888916015626	-239.8251342773438	997.0570068359377	-542.9180908203126	-313.3356933593751	1035.476806640625	-566.5059204101564	-398.1870422363282	797.9739379882815	-666.2297973632814	-351.4412841796876	761.0682983398439	-623.5008544921876	-341.6779174804688	797.7604980468752	-709.5922851562501	-304.5423278808594	791.5563964843752	-800.008483886719	-425.313934326172	914.8262939453127	-896.5548095703127	-452.6330566406251	891.7505493164065	-920.0081176757815	-443.7442626953126	892.6839599609377	-865.4646606445315	-342.6889038085938	646.5786132812501	-1116.509155273438	-264.0015869140626	615.3552246093751	-1134.96533203125	-229.7220153808594	645.9790039062501	-1125.514892578125	-247.6252136230469	556.5958862304689	-1132.507934570313	-142.516357421875	449.2869873046876	-1139.019165039063	-129.2571716308594	436.5417785644532	-1023.737731933594	-179.0688171386719	279.3349914550782	-1066.7353515625	-228.6468658447266	251.6755676269532	-1135.569580078125	-200.4784545898438	235.8432312011719	-1100.047607421875	-252.6983642578126	176.1597900390625	-1068.287231445313	-357.1947937011719	97.01446533203128	-1115.165405273438	-332.7925415039063	103.33837890625	-1028.723266601563	-424.4745178222657	54.4415626525879	-1064.41357421875	-206.3280487060547	60.08019256591798	-1059.3525390625	-212.320785522461	60.77096176147462	-1105.360717773438	-250.2664337158204	37.89126586914063	-1148.876342773438	-285.4693603515626	600.1438598632814	-703.0068969726564	-217.4008178710938	592.4121704101564	-695.4110717773439	-195.0262603759766	615.3012695312501	-701.5227661132814	-179.3829498291016	516.5625000000001	-707.8915405273439	-126.0236511230469	437.6784667968751	-715.1352539062501	-125.2265777587891	431.5451660156251	-833.390319824219	-132.0390625	305.1620788574219	-749.3111572265626	-230.5885772705079	280.6285705566407	-705.0394287109376	-199.4099273681641	254.7793579101563	-720.7224731445314	-217.9782409667969	207.1522674560547	-749.9209594726564	-363.2539672851563	111.3066329956055	-733.1350097656251	-336.5013122558594	114.7326812744141	-819.5284423828127	-426.4254150390626	74.03919982910158	-785.548767089844	-214.5778045654297	60.27377700805665	-785.0307617187502	-211.5502471923829	56.63117980957033	-746.9353637695314	-254.2430419921876	40.95745086669923	-698.6104736328126	-316.4147338867188	797.541198730469	-1016.66748046875	nan	nan	nan	nan	nan	nan	
